<svg width="179" height="117" viewBox="0 0 179 117" xmlns="http://www.w3.org/2000/svg"><g fill="none"><path class="primary" d="M0 116.164V98.89h6.086l2.267 8.41a54.56 54.56 0 0 1 .985 4.215c.147-.704.316-1.44.507-2.209.19-.768.406-1.595.644-2.483l2.148-7.927h6.074v17.27h-4.033v-7.66c0-.54.014-1.297.042-2.268.028-.97.07-2.095.125-3.373l-3.317 13.3H7.16l-3.27-13.3c.056 1.533.1 2.912.132 4.137.031 1.226.047 2.181.047 2.866v6.297H0zm33.742 0h-4.255a9.373 9.373 0 0 1-.125-.632 18.021 18.021 0 0 0-.125-.681 5.967 5.967 0 0 1-1.868 1.301 5.48 5.48 0 0 1-2.178.424 4.068 4.068 0 0 1-2.911-1.015 3.583 3.583 0 0 1-1.074-2.74 3.851 3.851 0 0 1 .835-2.572 4.582 4.582 0 0 1 2.536-1.391 52.16 52.16 0 0 1 2.386-.46c1.44-.235 2.16-.579 2.16-1.033v-.304a.955.955 0 0 0-.417-.836 2.183 2.183 0 0 0-1.235-.286c-.498-.027-.992.1-1.415.364a1.588 1.588 0 0 0-.65 1.068h-3.819a4.501 4.501 0 0 1 1.79-3.211c.99-.705 2.395-1.057 4.213-1.057a8.714 8.714 0 0 1 2.864.412 3.9 3.9 0 0 1 1.826 1.242c.315.423.535.91.644 1.426.152.877.216 1.767.191 2.657v4.835c-.016.46.036.922.155 1.367.062.274.235.51.477.65l-.005.472zm-4.595-6.005c-.53.276-1.1.465-1.688.561-.398.08-.695.145-.89.197-.394.084-.76.27-1.061.537a1.23 1.23 0 0 0-.31.878c-.018.409.135.807.423 1.098.3.286.702.437 1.116.418a2.481 2.481 0 0 0 1.742-.597 2.08 2.08 0 0 0 .674-1.612l-.006-1.48zm6.754 6.005v-12.75h4.01v2.244a4.596 4.596 0 0 1 1.665-1.916 4.968 4.968 0 0 1 2.53-.627v4.131l-.531-.054h-.496a3.823 3.823 0 0 0-1.587.287 2.286 2.286 0 0 0-1.002.883 3.105 3.105 0 0 0-.334 1.146 20.34 20.34 0 0 0-.102 2.388v4.28l-4.153-.012zm10.108 0V98.89h4.177v17.275zm7.094-13.908v-3.367h4.177v3.367h-4.177zm0 13.914v-12.756h4.177v12.75l-4.177.006zm7.089-.006v-12.75h4.08v1.749a4.32 4.32 0 0 1 1.606-1.552 4.718 4.718 0 0 1 2.261-.508c1.492 0 2.572.374 3.24 1.123.668.748 1.003 1.965 1.003 3.653v8.285h-4.177v-6.417c0-1.5-.125-2.455-.376-2.865a1.485 1.485 0 0 0-1.384-.597 1.79 1.79 0 0 0-1.605.734 4.222 4.222 0 0 0-.507 2.34v6.805h-4.141z" fill="#94CEC4"/><path class="secondary" d="M79.357 116.164V98.89h4.773l3.258 5.677a79.851 79.851 0 0 1 2.864 5.432 176.678 176.678 0 0 1-.143-3.671 109.785 109.785 0 0 1-.048-3.015V98.89h4.266v17.275h-4.773l-3.39-5.844c-.397-.688-.83-1.46-1.3-2.316-.47-.855-.967-1.78-1.492-2.776a82.344 82.344 0 0 1 .245 5.725v5.205l-4.26.006zm26.103-4.011h4.01a5.575 5.575 0 0 1-2.207 3.247 6.967 6.967 0 0 1-4.087 1.152 6.186 6.186 0 0 1-4.69-1.79 6.807 6.807 0 0 1-1.725-4.907 7.028 7.028 0 0 1 1.737-5.015 6.108 6.108 0 0 1 4.678-1.844 6.18 6.18 0 0 1 4.773 1.874c1.157 1.25 1.736 2.979 1.736 5.188v.74h-8.645a3.177 3.177 0 0 0 .596 2.06 2.076 2.076 0 0 0 1.707.71c.482.02.959-.103 1.372-.353.366-.254.63-.63.746-1.062zm-4.534-3.72h4.773a2.848 2.848 0 0 0-.65-1.921 2.201 2.201 0 0 0-1.718-.693 2.112 2.112 0 0 0-1.647.68 3.272 3.272 0 0 0-.758 1.935zm9.601-2.494v-2.525h1.712v-3.612h4.177v3.612h2.136v2.525h-2.136v5.527a2.91 2.91 0 0 0 .328 1.678c.327.314.778.465 1.229.412h.525v2.662c-.438.088-.865.153-1.283.197-.396.046-.794.07-1.193.072-1.448 0-2.443-.355-2.984-1.063-.54-.708-.807-2.217-.799-4.525v-4.936l-1.712-.024zm12.917 10.225l-3.777-12.75h4.255l1.79 8.763 1.533-8.763h4.302l1.581 8.763 1.832-8.763h4.242l-3.765 12.75h-4.302l-1.658-8.41-1.79 8.41zm16.629-6.393c0-2.133.597-3.802 1.79-5.008 1.194-1.206 2.847-1.803 4.959-1.791 2.12 0 3.779.597 4.976 1.79 1.197 1.195 1.794 2.864 1.79 5.01 0 2.132-.597 3.804-1.79 5.013-1.193 1.21-2.852 1.807-4.976 1.791-2.128 0-3.785-.597-4.97-1.79-1.186-1.195-1.779-2.866-1.779-5.015zm4.279 0c-.058.94.166 1.875.644 2.686a2.088 2.088 0 0 0 1.832.937 2.112 2.112 0 0 0 1.843-.943 4.69 4.69 0 0 0 .65-2.68 4.64 4.64 0 0 0-.65-2.662 2.118 2.118 0 0 0-1.843-.937 2.088 2.088 0 0 0-1.838.93 4.7 4.7 0 0 0-.638 2.67zm11.456 6.393v-12.75h4.01v2.244a4.596 4.596 0 0 1 1.664-1.916 4.968 4.968 0 0 1 2.53-.627v4.131l-.531-.054h-.496a3.823 3.823 0 0 0-1.587.287 2.286 2.286 0 0 0-1.002.883 3.105 3.105 0 0 0-.334 1.146c-.08.794-.115 1.591-.102 2.388v4.28l-4.152-.012zm10.131 0V98.89h4.111v8.912l3.849-4.387h4.898l-4.421 4.87 4.535 7.88h-4.63l-2.698-5.044-1.533 1.606v3.438z" fill="#F79E20"/><path class="primary" fill="#94CEC4" d="M52.74 19.508v51.367L68.836 59.58V30.79zM126.04.006v51.14l-16.044-11.21v-9.092l-20.61 14.35L75.33 35.34z"/><path class="secondary" fill="#F79E20" d="M92.674 47.498l33.366 23.377v-19.73L106.762 37.68zm-3.305-21.943L52.739 0v19.508l22.59 15.83z"/></g></svg>